<svg width="24" height="24" fill="none" viewBox="0 0 24 24" xmlns="http://www.w3.org/2000/svg"><path d="M9.04 5.493a3 3 0 1 1 5.919.002l2.432-.908a2.359 2.359 0 0 1 1.766 4.372L16 10.335v3.11l1.883 5.467a2.316 2.316 0 0 1-4.365 1.549l-1.515-4.148-1.512 4.15a2.32 2.32 0 0 1-4.373-1.55L8 13.457v-3.12L4.694 8.884A2.35 2.35 0 0 1 6.46 4.53l2.58.962Zm1.46-.495a1.5 1.5 0 0 0 .896 1.373 1.75 1.75 0 0 0 1.187.01A1.5 1.5 0 1 0 10.5 4.997Zm.33 2.763L5.937 5.936a.85.85 0 0 0-.64 1.574l3.755 1.653a.75.75 0 0 1 .448.686v3.735a.75.75 0 0 1-.04.245L7.535 19.4a.82.82 0 0 0 1.545.549l1.65-4.527c.433-1.186 2.11-1.187 2.544 0l1.652 4.523a.816.816 0 0 0 1.538-.546l-1.924-5.584a.752.752 0 0 1-.04-.245V9.843a.75.75 0 0 1 .45-.688l3.607-1.57a.859.859 0 0 0-.643-1.592l-4.78 1.783c-.35.143-.733.222-1.135.222a2.99 2.99 0 0 1-1.17-.237Z" fill="#ffffff"/></svg>