<svg xmlns="http://www.w3.org/2000/svg" width="24" height="24" xmlns:xlink="http://www.w3.org/1999/xlink" version="1.1" id="Layer_1" x="0px" y="0px" viewBox="0 0 512 512" style="enable-background:new 0 0 512 512;" xml:space="preserve">
<g>
	<path class="st0" d="M170.12,86.08c40.04,73,60.38,131.68,60.38,172c0,40.32-19.04,74.13-37.53,90.11l-5.01,3.49l-2.93,1.48   c-5.84,2.65-12.73,0.06-15.38-5.78c-0.98-2.17-1.27-4.57-0.85-6.88l0.66-2.27c15.65-38.78,23.24-76.9,22.65-114.28   c-0.17-10.6-8.9-19.06-19.5-18.89c-10.2,0.16-18.42,8.25-18.87,18.31l0.1,0.59c0.14,9.47-0.33,19.03-1.42,28.69l-1.71,12.2   l-1.07,6.07l-1.75,8.45l-2.6,10.56l-1.11,3.98c-4.36,15.42-10.2,31.07-17.5,46.93c-19.54,42.43-53.22,73.59-100.14,93   c-9.8,4.05-21.03-0.6-25.08-10.4c-4.05-9.8,0.6-21.03,10.4-25.08c24.7-10.22,44.45-24.02,59.47-41.52   C28.76,343.42,4,314.09,0.62,273.15c-3.83-46.33,13.62-77.68,57.85-112.93l12.56-9.66l9.09-6.89l9.46-7.4   c21.32-17.23,37.31-34.17,48.03-50.69C145.31,73.71,163.25,73.55,170.12,86.08z M383.99,128.04c40.9,0,74.33,31.97,76.66,72.28   l0.13,4.51v25.6l25.62,0.46c4.66,0,9.03,1.25,12.8,3.42c6.8,3.93,11.62,10.91,12.61,19.06l0.19,3.11v51.2   c0,9.47-5.15,17.75-12.8,22.17c-2.83,1.63-5.99,2.74-9.36,3.2l-3.44,0.23l-25.62-0.46v25.6c0,40.9-31.97,74.33-72.28,76.66   l-4.51,0.13H159.82c-14.14,0-25.6-11.46-25.6-25.6c0-13.13,9.88-23.95,22.61-25.43l2.98-0.17h16.13l1.93-0.15l2.68-0.48   c19.02-4.16,75.44-30.79,75.44-126.91c0-31.15-7.73-65.74-23.18-103.79c-0.87-2.14-1.32-4.43-1.32-6.74   c0-9.07,6.74-16.57,15.49-17.75l2.43-0.16H383.99z"/>
</g>
</svg>