<svg xmlns="http://www.w3.org/2000/svg" width="22" height="22" id="flight-mode" x="0" y="0" version="1.1" viewBox="0 0 29 29" xml:space="preserve"><path d="M10.586 24h-.777a1.491 1.491 0 0 1-1.276-.712 1.493 1.493 0 0 1-.065-1.46l2.336-4.672-5.397-.108-.536 1.205a1.49 1.49 0 0 1-1.682.858A1.488 1.488 0 0 1 2 17.644v-6.287a1.49 1.49 0 0 1 1.188-1.468 1.49 1.49 0 0 1 1.682.858l.536 1.205 5.397-.108-2.336-4.673a1.49 1.49 0 0 1 .066-1.459A1.49 1.49 0 0 1 9.809 5h.777c.534 0 1.036.208 1.414.586l6.109 6.109 5.865-.155h.068c.778 0 1.511.299 2.069.845.574.561.889 1.313.889 2.115s-.315 1.554-.889 2.115c-.573.562-1.326.846-2.131.845l-5.871-.155L12 23.414c-.378.378-.88.586-1.414.586zm-5.824-8.965h.02l7.644.153a1 1 0 0 1 .875 1.447l-2.65 5.3L17 15.586c.194-.193.46-.291.733-.293l6.294.166a.885.885 0 0 0 .685-.273.958.958 0 0 0-.001-1.373.916.916 0 0 0-.688-.273l-6.291.166a.984.984 0 0 1-.733-.293L10.65 7.064l2.65 5.3a1 1 0 0 1-.875 1.447l-7.644.153c-.334-.019-.59-.126-.781-.352v1.775a1 1 0 0 1 .762-.352z"></path></svg>